<svg width="121" height="122" viewBox="0 0 121 122" fill="none" xmlns="http://www.w3.org/2000/svg">
    <mask id="mask0_45_3" style="mask-type:alpha" maskUnits="userSpaceOnUse" x="0" y="1" width="121" height="121">
        <rect y="1" width="121" height="121" fill="url(#paint0_radial_45_3)" fill-opacity="0.21"/>
    </mask>
    <g mask="url(#mask0_45_3)">
        <ellipse cx="60.5" cy="62" rx="60.5" ry="60" fill="url(#paint1_linear_45_3)"/>
    </g>
    <g clip-path="url(#clip0_45_3)">
        <rect x="70.6066" y="30.3521" width="35.0481" height="64.9487" rx="17.524" transform="rotate(45 70.6066 30.3521)" fill="url(#paint2_linear_45_3)"/>
        <rect x="70.6066" y="30.3521" width="35.0481" height="59.2049" rx="17.524" transform="rotate(45 70.6066 30.3521)" fill="url(#paint3_linear_45_3)"/>
        <path d="M56.8591 44.1047C57.9857 42.8199 58.9392 42.0189 58.9392 42.0189C58.9392 42.0189 58.1532 42.8071 56.8591 44.1047C53.7832 47.6127 49.4169 54.7272 59.6463 58.9894C69.6367 63.1521 72.5357 77.8758 68.7466 81.6648C59.4559 90.9555 59.8081 91.3077 53.5656 93.3237C51.2392 94.075 36.9322 64.0676 37.5 63.4998C42.8669 58.1331 52.6066 48.3687 56.8591 44.1047Z" fill="url(#paint4_linear_45_3)"/>
        <rect x="49.3934" y="51.5649" width="35" height="35" rx="17.5" transform="rotate(45 49.3934 51.5649)" fill="url(#paint5_linear_45_3)"/>
    </g>
    <defs>
        <radialGradient id="paint0_radial_45_3" cx="0" cy="0" r="1" gradientUnits="userSpaceOnUse" gradientTransform="translate(60.5 61.5) rotate(89.5185) scale(59.5021)">
            <stop offset="0.495" stop-color="white"/>
            <stop offset="1" stop-color="white" stop-opacity="0.14"/>
        </radialGradient>
        <linearGradient id="paint1_linear_45_3" x1="60.5" y1="2" x2="60.5" y2="122" gradientUnits="userSpaceOnUse">
            <stop stop-color="#8307FF"/>
            <stop offset="0.479545" stop-color="#DB00FF"/>
            <stop offset="1" stop-color="#FF00D6"/>
        </linearGradient>
        <linearGradient id="paint2_linear_45_3" x1="87.5803" y1="31.2652" x2="90.7723" y2="116.044" gradientUnits="userSpaceOnUse">
            <stop stop-color="#8307FF"/>
            <stop offset="0.479545" stop-color="#DB00FF"/>
            <stop offset="1" stop-color="#FF00D6"/>
        </linearGradient>
        <linearGradient id="paint3_linear_45_3" x1="85.4851" y1="29.6281" x2="87.7611" y2="84.5017" gradientUnits="userSpaceOnUse">
            <stop stop-color="#A107FF"/>
            <stop offset="0.598283" stop-color="#ED81FF"/>
            <stop offset="1" stop-color="#FF00D6"/>
        </linearGradient>
        <linearGradient id="paint4_linear_45_3" x1="94.5001" y1="37" x2="18.231" y2="92.709" gradientUnits="userSpaceOnUse">
            <stop stop-color="white"/>
            <stop offset="0.833884" stop-color="white" stop-opacity="0"/>
        </linearGradient>
        <linearGradient id="paint5_linear_45_3" x1="70.3934" y1="86.5649" x2="73.031" y2="7.93697" gradientUnits="userSpaceOnUse">
            <stop stop-color="#8307FF"/>
            <stop offset="0.479545" stop-color="#DB00FF"/>
            <stop offset="1" stop-color="#FF00D6"/>
        </linearGradient>
        <clipPath id="clip0_45_3">
            <rect width="70" height="70" fill="white" transform="translate(60 15.5024) rotate(45)"/>
        </clipPath>
    </defs>
</svg>
