<svg width="121" height="122" viewBox="0 0 121 122" fill="none" xmlns="http://www.w3.org/2000/svg">
    <mask id="mask0_50_10" style="mask-type:alpha" maskUnits="userSpaceOnUse" x="0" y="1" width="121" height="121">
        <rect y="1" width="121" height="121" fill="url(#paint0_radial_50_10)" fill-opacity="0.21"/>
    </mask>
    <g mask="url(#mask0_50_10)">
        <ellipse cx="60.5" cy="62" rx="60.5" ry="60" fill="url(#paint1_linear_50_10)"/>
    </g>
    <rect x="83" y="89" width="6" height="7" rx="1" transform="rotate(-180 83 89)" fill="url(#paint2_linear_50_10)"/>
    <rect x="43" y="89" width="6" height="7" rx="1" transform="rotate(-180 43 89)" fill="url(#paint3_linear_50_10)"/>
    <path d="M31 42C31 39.2386 33.2386 37 36 37H84C86.7614 37 89 39.2386 89 42V79C89 81.7614 86.7614 84 84 84H36C33.2386 84 31 81.7614 31 79V42Z" fill="url(#paint4_linear_50_10)"/>
    <circle cx="77.5" cy="60.5" r="4.5" fill="#F9F9F9"/>
    <path d="M48 68.5C38.6893 59.7712 46 45 31 44V78C31 83 33.5 84 36 84H83C89.4 84 89 80 89 77.5C81 64.5 56 76 48 68.5Z" fill="url(#paint5_radial_50_10)"/>
    <defs>
        <radialGradient id="paint0_radial_50_10" cx="0" cy="0" r="1" gradientUnits="userSpaceOnUse" gradientTransform="translate(60.5 61.5) rotate(89.5185) scale(59.5021)">
            <stop offset="0.495" stop-color="white"/>
            <stop offset="1" stop-color="white" stop-opacity="0.14"/>
        </radialGradient>
        <linearGradient id="paint1_linear_50_10" x1="60.5" y1="2" x2="60.5" y2="122" gradientUnits="userSpaceOnUse">
            <stop stop-color="#8307FF"/>
            <stop offset="0.479545" stop-color="#DB00FF"/>
            <stop offset="1" stop-color="#FF00D6"/>
        </linearGradient>
        <linearGradient id="paint2_linear_50_10" x1="86" y1="89" x2="86" y2="100" gradientUnits="userSpaceOnUse">
            <stop stop-color="#8307FF"/>
            <stop offset="0.479545" stop-color="#DB00FF"/>
            <stop offset="1" stop-color="#FF00D6"/>
        </linearGradient>
        <linearGradient id="paint3_linear_50_10" x1="46" y1="89" x2="46" y2="100" gradientUnits="userSpaceOnUse">
            <stop stop-color="#8307FF"/>
            <stop offset="0.479545" stop-color="#DB00FF"/>
            <stop offset="1" stop-color="#FF00D6"/>
        </linearGradient>
        <linearGradient id="paint4_linear_50_10" x1="62.5" y1="91.8333" x2="86.035" y2="20.0451" gradientUnits="userSpaceOnUse">
            <stop stop-color="#8307FF"/>
            <stop offset="0.479545" stop-color="#DB00FF"/>
            <stop offset="1" stop-color="#FF00D6"/>
        </linearGradient>
        <radialGradient id="paint5_radial_50_10" cx="0" cy="0" r="1" gradientUnits="userSpaceOnUse" gradientTransform="translate(65.5 52) rotate(133.862) scale(53.3971 77.4324)">
            <stop offset="0.12" stop-color="#9E00FF"/>
            <stop offset="0.64" stop-color="#8F00FF" stop-opacity="0.47"/>
            <stop offset="1" stop-color="#8F00FF"/>
        </radialGradient>
    </defs>
</svg>
